<svg xmlns="http://www.w3.org/2000/svg" width="31" height="31" viewBox="0 0 31 31">
  <g id="Group_2959" data-name="Group 2959" transform="translate(-500 -2276)">
    <circle id="sdfffffffffffffffffffffffffffffffffffffffff" cx="15.5" cy="15.5" r="15.5" transform="translate(500 2276)" fill="#18d36c"/>
    <path id="Path_1911" data-name="Path 1911" d="M-1087.059-164.9l2.861-1.06a.98.98,0,0,0,.579-1.259.98.98,0,0,0-1.259-.579l-1.574.583,1.2-4.561a.98.98,0,0,0-.7-1.2.98.98,0,0,0-1.2.7l-1.544,5.889-2.8,1.036a.98.98,0,0,0-.579,1.259.98.98,0,0,0,.919.64.976.976,0,0,0,.34-.061l1.51-.559-.861,3.283a2.239,2.239,0,0,0,.4,1.949,2.238,2.238,0,0,0,1.785.877h7.366a.98.98,0,0,0,.98-.98.98.98,0,0,0-.98-.98h-7.366a.289.289,0,0,1-.233-.115.288.288,0,0,1-.052-.254Z" transform="translate(1601.135 2457.005)" fill="#fff"/>
  </g>
</svg>
