<svg xmlns="http://www.w3.org/2000/svg" width="31" height="31" viewBox="0 0 31 31">
  <g id="Group_2941" data-name="Group 2941" transform="translate(880.551 309.306)">
    <circle id="_56666666666666666666666666666666666666666666" data-name="56666666666666666666666666666666666666666666" cx="15.5" cy="15.5" r="15.5" transform="translate(-880.551 -309.306)" fill="#346aa9"/>
    <path id="Path_1909" data-name="Path 1909" d="M-860.437-285.306a3.856,3.856,0,0,0,3.852-3.852,3.856,3.856,0,0,0-3.806-3.851v0a3.863,3.863,0,0,0-.435.021l-.015,0q-.084.009-.168.021l-.04.006-.09.014a.476.476,0,0,1-.13-.049.947.947,0,0,1-.169-1.55,1.388,1.388,0,0,1,.165-.127,3.84,3.84,0,0,0,.55.066c.061,0,.122,0,.183,0s.117,0,.175,0l.046,0c.056,0,.111-.007.166-.013l.03,0,.136-.017.062-.009.13-.023.078-.016.1-.022.073-.019.017,0h0a3.858,3.858,0,0,0,2.842-3.717,3.856,3.856,0,0,0-3.852-3.852,3.856,3.856,0,0,0-3.852,3.852,3.826,3.826,0,0,0,.43,1.765l0,0a3.89,3.89,0,0,0,.326.522,1.051,1.051,0,0,1-.027.431.948.948,0,0,1-1.191.711,1.728,1.728,0,0,1-.272-.1,3.858,3.858,0,0,0-3.629-2.562,3.856,3.856,0,0,0-3.852,3.852,3.856,3.856,0,0,0,3.852,3.852,3.844,3.844,0,0,0,2.938-1.364l.008.008a3.841,3.841,0,0,0,.606-.994.954.954,0,0,1,.34-.182.953.953,0,0,1,1.225.575,2.241,2.241,0,0,1,.124.464,3.94,3.94,0,0,0-.384.628c-.011.023-.021.046-.031.069h0a3.827,3.827,0,0,0-.358,1.619A3.856,3.856,0,0,0-860.437-285.306Zm-.285-5.627.02,0a1.8,1.8,0,0,1,.265-.02,1.8,1.8,0,0,1,1.8,1.8,1.8,1.8,0,0,1-1.8,1.8,1.8,1.8,0,0,1-1.8-1.8A1.8,1.8,0,0,1-860.722-290.932Zm.183-9.319a1.8,1.8,0,0,1,1.8,1.8,1.8,1.8,0,0,1-1.173,1.686l-.048.017-.031.01-.045.013-.036.01-.043.011-.04.009-.041.009-.044.008-.039.006-.048.006-.037,0-.056,0-.03,0-.087,0c-.034,0-.069,0-.1,0h0a2.007,2.007,0,0,1-.3-.043,1.8,1.8,0,0,1-1.131-.816l0-.006c-.014-.023-.027-.046-.04-.07l-.005-.009a1.787,1.787,0,0,1-.214-.85A1.8,1.8,0,0,1-860.539-300.252Zm-8.218,8.218a1.8,1.8,0,0,1-1.8-1.8,1.8,1.8,0,0,1,1.8-1.8,1.784,1.784,0,0,1,.845.212l-.01.013a1.786,1.786,0,0,1,.706.667,1.93,1.93,0,0,1,.179.4c.008.025.017.049.026.073a1.8,1.8,0,0,1,.052.431A1.8,1.8,0,0,1-868.757-292.034Z" fill="#fff"/>
  </g>
</svg>
