<svg xmlns="http://www.w3.org/2000/svg" width="31" height="31" viewBox="0 0 31 31">
  <g id="bitcoin-logo_1_" data-name="bitcoin-logo (1)" transform="translate(-55.893 8)">
    <circle id="_466666666666666666666666666666666666666666666666666666666666666666666" data-name="466666666666666666666666666666666666666666666666666666666666666666666" cx="15.5" cy="15.5" r="15.5" transform="translate(55.893 -8)" fill="#93b4d5"/>
    <path id="Path_1904" data-name="Path 1904" d="M76.511,8.025A2.76,2.76,0,0,0,74.9,7.078a2.179,2.179,0,0,0,1.2-2.372,2.344,2.344,0,0,0-.336-1.052,2.106,2.106,0,0,0-.759-.717,4.175,4.175,0,0,0-1.039-.414,8.2,8.2,0,0,0-1.287-.207V0H71.271V2.252q-.368,0-1.121.018V0H68.734V2.317q-.3.009-.892.009l-1.949-.009V3.824h1.02a.73.73,0,0,1,.818.625V7.088a.935.935,0,0,1,.147.009h-.147v3.7a.491.491,0,0,1-.533.469h-1.02l-.285,1.682h1.839l.506,0q.331,0,.5,0V15.3H70.15V12.98q.386.009,1.121.009V15.3h1.416V12.953a11.005,11.005,0,0,0,1.337-.138,5.443,5.443,0,0,0,1.117-.317,3.014,3.014,0,0,0,.892-.538,2.538,2.538,0,0,0,.593-.818,3.478,3.478,0,0,0,.3-1.149A2.723,2.723,0,0,0,76.511,8.025Zm-6.334-4.1.363,0,.5-.009q.2,0,.533.023a5.072,5.072,0,0,1,.565.074,3.149,3.149,0,0,1,.506.152,1.37,1.37,0,0,1,.441.257,1.277,1.277,0,0,1,.28.386,1.205,1.205,0,0,1,.115.538,1.279,1.279,0,0,1-.083.469.884.884,0,0,1-.248.354,2.515,2.515,0,0,1-.34.248,1.558,1.558,0,0,1-.446.17q-.271.064-.473.1a3.875,3.875,0,0,1-.506.051q-.3.014-.46.018t-.428,0l-.317,0V3.925h0Zm3.866,6.26a1.307,1.307,0,0,1-.225.368,1.277,1.277,0,0,1-.363.276,3.114,3.114,0,0,1-.437.193,3.514,3.514,0,0,1-.51.129q-.3.055-.524.078t-.538.037q-.312.014-.487.014t-.441,0l-.34,0V8.163q.073,0,.437-.009t.593-.009q.23,0,.634.028a5.42,5.42,0,0,1,.68.082,4.473,4.473,0,0,1,.6.17,1.746,1.746,0,0,1,.529.28,1.38,1.38,0,0,1,.34.423,1.313,1.313,0,0,1,.051,1.057Z" fill="#fff"/>
  </g>
</svg>
